<svg xmlns="http://www.w3.org/2000/svg" width="81.37" height="81.37" viewBox="0 0 81.37 81.37"><defs><style>.a{fill:#f60;}</style></defs><g transform="translate(0 -36)"><path class="a" d="M32.836,56.9a1.749,1.749,0,0,1,1.6-1.866h7.929a1.888,1.888,0,0,1,0,3.733H34.438A1.749,1.749,0,0,1,32.836,56.9ZM54.309,50.93H49.655a1.888,1.888,0,0,1,0-3.733H60.867c4.593,0,8.329,4.353,8.329,9.7s-3.736,9.7-8.329,9.7H40.685a1.888,1.888,0,0,1,0-3.733H54.309a10.955,10.955,0,0,1,0-11.944ZM55.742,56.9c0,3.9,2.859,5.972,5.126,5.972,2.826,0,5.126-2.679,5.126-5.972s-2.3-5.972-5.126-5.972C58.6,50.93,55.742,53.007,55.742,56.9ZM20.5,62.874a5.064,5.064,0,0,1-4.439-2.983,1.485,1.485,0,0,0-2.189-.679,2.044,2.044,0,0,0-.583,2.55A8.225,8.225,0,0,0,20.5,66.607C22.676,66.607,22.676,62.874,20.5,62.874Zm-4.444-8.95a5.067,5.067,0,0,1,4.434-2.994,1.888,1.888,0,0,0,0-3.733h0a8.23,8.23,0,0,0-7.2,4.862C12.216,54.216,14.992,56.08,16.058,53.924Zm9.57,2.978a6.743,6.743,0,0,1-.676,2.967c-1.061,2.154,1.717,4.012,2.778,1.858a11.119,11.119,0,0,0-.026-9.7,1.484,1.484,0,0,0-2.19-.674,2.044,2.044,0,0,0-.578,2.552A6.743,6.743,0,0,1,25.628,56.9Zm15.053,56.735a1.888,1.888,0,1,0,1.6,1.866A1.751,1.751,0,0,0,40.682,113.637ZM81.37,43.465v49.27c0,4.116-2.874,7.465-6.407,7.465H51.039l.784,7.31a.866.866,0,0,0,.477.745,6.6,6.6,0,0,1,3.327,2.687,8.377,8.377,0,0,1,1.315,4.561,1.75,1.75,0,0,1-1.6,1.866H47.89a1.888,1.888,0,0,1,0-3.733h5.433a3.522,3.522,0,0,0-1.932-1.8,4.474,4.474,0,0,1-2.747-3.859L47.81,100.2H33.56l-.834,7.775a4.458,4.458,0,0,1-2.747,3.859,3.523,3.523,0,0,0-1.932,1.8h5.427a1.888,1.888,0,0,1,0,3.733H26.029a1.753,1.753,0,0,1-1.6-1.866,8.325,8.325,0,0,1,1.315-4.561,6.553,6.553,0,0,1,3.327-2.687.866.866,0,0,0,.477-.743l.784-7.312H6.407C2.874,100.2,0,96.851,0,92.735V43.465C0,39.349,2.874,36,6.407,36H74.963c3.533,0,6.407,3.349,6.407,7.465ZM48.053,85.27H21.143V89h26.91ZM17.94,89V77.8H3.2V89Zm60.227-7.465V77.8H21.143v3.733ZM3.2,43.465V74.072H78.166V43.465a3.5,3.5,0,0,0-3.2-3.733H6.407A3.5,3.5,0,0,0,3.2,43.465Zm74.963,49.27H3.2a3.5,3.5,0,0,0,3.2,3.733H74.963A3.5,3.5,0,0,0,78.166,92.735Zm0-3.733V85.27H51.257V89Z"/></g></svg>