<svg xmlns="http://www.w3.org/2000/svg" width="82" height="76.534" viewBox="0 0 82 76.534"><defs><style>.a{fill:#f60;}</style></defs><g transform="translate(0 -15.999)"><g transform="translate(0 15.999)"><g transform="translate(0 0)"><path class="a" d="M80.634,81.6H79.267V32.4A5.467,5.467,0,0,0,73.8,26.933H61.5V17.366a1.366,1.366,0,0,0-1.618-1.343l-8.2,1.538-1.367.257L38.14,20.1H30.067a2.733,2.733,0,0,0-2.733,2.733,6.833,6.833,0,0,0-6.254,4.1H8.2A5.467,5.467,0,0,0,2.733,32.4V81.6H1.367A1.367,1.367,0,0,0,0,82.966v4.1a5.467,5.467,0,0,0,5.467,5.467H76.534A5.467,5.467,0,0,0,82,87.066v-4.1A1.367,1.367,0,0,0,80.634,81.6Zm-41-59,19.133-3.588V40.326L39.634,36.732Zm0,16.906,2.733.513v1.948H39.634ZM30.067,22.833H36.9V36.5H30.067Zm2.733,24.6v-8.2h4.1v8.2Zm4.1,2.733v2.05a2.05,2.05,0,1,1-4.1,0v-2.05Zm-9.567-24.6v8.2a4.1,4.1,0,0,1,0-8.2ZM5.467,32.4A2.733,2.733,0,0,1,8.2,29.666H20.5A6.842,6.842,0,0,0,27.333,36.5a2.733,2.733,0,0,0,2.733,2.733V52.216a4.783,4.783,0,1,0,9.567,0V44.7h4.1A1.367,1.367,0,0,0,45.1,43.333V40.538l14.782,2.772a1.411,1.411,0,0,0,.251.023A1.367,1.367,0,0,0,61.5,41.966v-12.3H73.8A2.733,2.733,0,0,1,76.534,32.4V81.6H53.3a1.367,1.367,0,0,0-.966.4L50,84.333H32L29.666,82a1.367,1.367,0,0,0-.966-.4H5.467Zm73.8,54.667A2.733,2.733,0,0,1,76.534,89.8H5.467a2.733,2.733,0,0,1-2.733-2.733V84.333h25.4l2.333,2.333a1.367,1.367,0,0,0,.966.4H50.567a1.367,1.367,0,0,0,.966-.4l2.333-2.333h25.4Z" transform="translate(0 -15.999)"/></g></g><g transform="translate(9.567 33.766)"><path class="a" d="M117.5,120h-5.467v2.733h4.1v36.9h-57.4v-36.9h6.833V120h-8.2A1.367,1.367,0,0,0,56,121.367V161a1.367,1.367,0,0,0,1.367,1.367H117.5A1.367,1.367,0,0,0,118.867,161V121.367A1.367,1.367,0,0,0,117.5,120Z" transform="translate(-56 -120)"/></g><g transform="translate(39.589 78.964)"><g transform="translate(0 0)"><rect class="a" width="2" height="3" transform="translate(0.412 0.302)"/></g></g><g transform="translate(19.125 61.322)"><g transform="translate(0 0)"><rect class="a" width="3" height="3" transform="translate(-0.124 -0.057)"/></g></g><g transform="translate(24.77 61.322)"><g transform="translate(0 0)"><rect class="a" width="41" height="3" transform="translate(0.23 -0.057)"/></g></g><g transform="translate(16.302 66.262)"><g transform="translate(0 0)"><rect class="a" width="45" height="3" transform="translate(-0.301 0.003)"/></g></g></g></svg>