<svg xmlns="http://www.w3.org/2000/svg" width="83.995" height="81.37" viewBox="0 0 83.995 81.37"><defs><style>.a{fill:#f60;}</style></defs><g transform="translate(0 -8)"><g transform="translate(0 8)"><path class="a" d="M80.058,8H3.937A3.937,3.937,0,0,0,0,11.937V69.684A1.312,1.312,0,0,0,1.312,71h29.9l-2.1,10.5H26.248a1.312,1.312,0,0,0-1.312,1.312v3.937H22.311V89.37H61.684V86.745H59.059V82.808A1.312,1.312,0,0,0,57.746,81.5H54.883L52.783,71h29.9a1.312,1.312,0,0,0,1.312-1.312V11.937A3.937,3.937,0,0,0,80.058,8ZM53.809,84.12h2.625v2.625H27.561V84.12H53.809ZM31.787,81.5l2.1-10.5H50.108l2.1,10.5ZM81.37,68.371H2.625V56.56H81.37ZM63,19.812H52.5a1.312,1.312,0,0,0-1.312,1.312V32.936h2.625v-10.5h7.875v5.25h-5.25v2.625h5.25v6.562h-5.25V39.5h5.25V46.06h-5.25v2.625h5.25v5.25H53.809v-10.5H51.184v10.5h-5.25V47.373c0-5.356,6.5-6.533,6.777-6.58a1.312,1.312,0,0,0,.91-1.969L41.81,19.137a1.364,1.364,0,0,0-2.249,0L27.748,38.823a1.312,1.312,0,0,0,.906,1.969c.277.047,6.781,1.224,6.781,6.58v6.562h-5.25v-10.5H27.561v10.5H26.248V30.311h1.312v2.625h2.625V29a1.3,1.3,0,0,0-.106-.517l-3.937-9.187a1.312,1.312,0,0,0-2.412,0l-3.937,9.187a1.3,1.3,0,0,0-.106.517V53.935H9.187V17.187H74.808V53.935h-10.5V21.124A1.312,1.312,0,0,0,63,19.812ZM38.06,50V48.685h5.25V50Zm5.25,2.625v1.312H38.06V52.622ZM37.964,46.06c-.629-4.173-4.2-6.431-7.061-7.4L39.373,24.55v11.01H42V24.55l8.469,14.114c-2.861.958-6.432,3.222-7.061,7.4H37.964ZM22.986,27.686l1.95-4.549,1.95,4.549Zm.637,2.625V53.935H22.311V30.311ZM81.37,53.935H77.433V15.875a1.312,1.312,0,0,0-1.312-1.312H7.875a1.312,1.312,0,0,0-1.312,1.312v38.06H2.625v-42a1.312,1.312,0,0,1,1.312-1.312h76.12a1.312,1.312,0,0,1,1.312,1.312Z" transform="translate(0 -8)"/></g><g transform="translate(38.429 58.373)"><path class="a" d="M235.568,312a3.568,3.568,0,1,0,3.568,3.568A3.568,3.568,0,0,0,235.568,312Zm0,4.758a1.189,1.189,0,1,1,1.189-1.189A1.189,1.189,0,0,1,235.568,316.758Z" transform="translate(-232 -312)"/></g></g></svg>