<svg xmlns="http://www.w3.org/2000/svg" width="81.37" height="81.37" viewBox="0 0 81.37 81.37"><defs><style>.a{fill:#f60;}</style></defs><path class="a" d="M70.886,67.13A19.583,19.583,0,0,0,55.416,55.179h0a19.545,19.545,0,1,0-5.236,38.737h0a19.547,19.547,0,0,0,20.7-26.786ZM55.85,57.5a17.361,17.361,0,0,1,12.257,8.944H50.689l.848-1.468Zm1.444,13.07,2.3,3.98-1.7,2.941-1.7,2.938H49.4l-1.1-1.9-2.3-3.979,1.7-2.941,1.7-2.939H56.2ZM52.8,57.225c.209,0,.42,0,.632.013L44.721,72.323,40.7,65.357l-1.14-1.974A17.206,17.206,0,0,1,52.8,57.225ZM35.476,74.548a17.135,17.135,0,0,1,2.647-9.2L43.757,75.1l3.076,5.324H36.5A17.206,17.206,0,0,1,35.476,74.548ZM49.747,91.6A17.364,17.364,0,0,1,37.49,82.653H54.908l-.848,1.468Zm3.051.273c-.209,0-.42,0-.632-.013l8.709-15.085L64.9,83.738l1.14,1.974A17.206,17.206,0,0,1,52.8,91.871Zm14.676-8.12L61.84,73.992l-3.076-5.324H69.094a17.33,17.33,0,0,1-1.619,15.085Z" transform="translate(-12.114 -20.036)"/><path class="a" d="M77.715,31.149h-23.8a26.735,26.735,0,0,0-3.892-1.821l2.57-2.526a1.112,1.112,0,0,0,.332-.793V17.052h2.649a1.112,1.112,0,0,0,1.112-1.112V7.572a1.112,1.112,0,0,0-.318-.781L50,.332A1.113,1.113,0,0,0,49.209,0H32.161a1.112,1.112,0,0,0-.793.332L25.007,6.791a1.112,1.112,0,0,0-.318.781V15.94A1.112,1.112,0,0,0,25.8,17.052h2.646v8.957a1.113,1.113,0,0,0,.333.793l2.57,2.526a26.735,26.735,0,0,0-3.891,1.821h-8V25.9a1.112,1.112,0,0,0-1.112-1.112H8.9A1.112,1.112,0,0,0,7.787,25.9v5.245H3.655A3.66,3.66,0,0,0,0,34.8V74.218a3.66,3.66,0,0,0,3.655,3.655h23.8a26.763,26.763,0,0,0,26.452,0h23.8a3.659,3.659,0,0,0,3.655-3.655V34.8A3.659,3.659,0,0,0,77.715,31.149Zm-50.8-16.322v-6.8l5.716-5.8H48.743l5.716,5.8v6.8H26.911Zm3.761,10.715v-8.49H50.7v8.49l-3.075,3.022a26.916,26.916,0,0,0-13.875,0Zm-20.66,1.475h7.224v4.132H10.012ZM2.225,34.8a1.432,1.432,0,0,1,1.43-1.43h20.47a27.2,27.2,0,0,0-6.41,7.231H2.225Zm0,8.026H16.5a26.724,26.724,0,0,0-1.317,3.258H2.225Zm1.43,32.818a1.432,1.432,0,0,1-1.43-1.43v-25.9H14.558a26.808,26.808,0,0,0,9.57,27.335Zm45.5,1.993A24.63,24.63,0,1,1,64.775,49.38,24.581,24.581,0,0,1,49.153,77.641Zm29.992-3.423a1.432,1.432,0,0,1-1.43,1.43H57.245a26.808,26.808,0,0,0,9.567-27.335H79.145Zm0-28.13H66.183a26.724,26.724,0,0,0-1.317-3.258H79.145Zm0-5.483H63.655a27.2,27.2,0,0,0-6.412-7.231h20.47a1.432,1.432,0,0,1,1.43,1.43Z"/><path class="a" d="M68.932,14.04V11.945a1.112,1.112,0,0,0-.318-.781L64.837,7.332A1.113,1.113,0,0,0,64.044,7H50.722a1.112,1.112,0,0,0-.793.332l-3.775,3.833a1.112,1.112,0,0,0-.318.781v2.094a1.112,1.112,0,0,0,1.112,1.112H67.82A1.112,1.112,0,0,0,68.932,14.04Zm-2.225-1.112H48.059V12.4l3.128-3.179h12.39L66.707,12.4Z" transform="translate(-16.698 -2.55)"/><path class="a" d="M54.112,32.725h11.76a1.112,1.112,0,1,0,0-2.225H54.112a1.112,1.112,0,1,0,0,2.225Z" transform="translate(-19.308 -11.111)"/></svg>