<svg xmlns="http://www.w3.org/2000/svg" width="81.37" height="76.266" viewBox="0 0 81.37 76.266"><defs><style>.a{fill:#f60;}</style></defs><g transform="translate(-0.001 -0.5)"><path class="a" d="M48.621,30.889a3.311,3.311,0,1,0-3.31,3.31A3.314,3.314,0,0,0,48.621,30.889Zm-4.647,0a1.336,1.336,0,1,1,1.337,1.336,1.338,1.338,0,0,1-1.337-1.336Zm0,0" transform="translate(-36.472 -23.514)"/><path class="a" d="M105.072,34.2a3.31,3.31,0,1,0-3.31-3.31A3.314,3.314,0,0,0,105.072,34.2Zm0-4.646a1.336,1.336,0,1,1-1.336,1.336A1.338,1.338,0,0,1,105.072,29.552Zm0,0" transform="translate(-85.286 -23.514)"/><path class="a" d="M164.831,34.2a3.31,3.31,0,1,0-3.311-3.31A3.314,3.314,0,0,0,164.831,34.2Zm0-4.646a1.336,1.336,0,1,1-1.337,1.336A1.338,1.338,0,0,1,164.831,29.552Zm0,0" transform="translate(-135.369 -23.514)"/><path class="a" d="M263.155,47.2H287.2a.987.987,0,0,0,0-1.974H263.155a.987.987,0,0,0,0,1.974Zm0,0" transform="translate(-213.678 -38.843)"/><path class="a" d="M76.394.5H4.978A4.983,4.983,0,0,0,0,5.477V71.789a4.983,4.983,0,0,0,4.977,4.977H76.394a4.983,4.983,0,0,0,4.977-4.977V5.477A4.983,4.983,0,0,0,76.394.5Zm0,73.882H4.978a2.6,2.6,0,0,1-2.593-2.593V17.1H9.029a1.192,1.192,0,1,0,0-2.384H2.384V5.477A2.6,2.6,0,0,1,4.978,2.884H76.394a2.6,2.6,0,0,1,2.593,2.593v9.241H13.479a1.192,1.192,0,0,0,0,2.384H78.987V71.789A2.6,2.6,0,0,1,76.394,74.382Zm0,0" transform="translate(0 0)"/><path class="a" d="M124.428,123.66H113.416c-2.2,0-3.989,1.4-3.989,3.125v1.194a3.857,3.857,0,0,0-2.723,2.135l-19.681.058a3.86,3.86,0,0,0-2.72-2.129V126.85c0-1.723-1.79-3.125-3.989-3.125H69.3c-2.2,0-3.989,1.4-3.989,3.125v8.626c0,1.723,1.79,3.125,3.989,3.125h1.524a3.857,3.857,0,0,0,2.722,2.133v4.033c0,2.081,2.161,3.774,4.818,3.774H90.234a3.858,3.858,0,0,0,2.722,2.132v1.262c0,1.686,1.751,3.057,3.9,3.057h1.707a3.746,3.746,0,0,0,2.521,2.153,2.325,2.325,0,0,1-1.969.954H85.659a3.744,3.744,0,0,0-2.814-2.4V154.5c0-1.723-1.79-3.125-3.989-3.125H67.843c-2.2,0-3.989,1.4-3.989,3.125v8.627c0,1.723,1.79,3.125,3.989,3.125H78.855c2.2,0,3.989-1.4,3.989-3.125v-1.194a3.979,3.979,0,0,0,2.595-1.862H99.118a4.647,4.647,0,0,0,4.592-2.834,3.861,3.861,0,0,0,2.885-2.247h1.449c2.153,0,3.9-1.372,3.9-3.057v-2.6a1.3,1.3,0,0,0-2.52,0v2.6a1.262,1.262,0,0,1-1.383,1.083h-1.518c-1.31-2.945-6.6-2.922-7.892,0H96.859a1.262,1.262,0,0,1-1.383-1.083v-1.262a4.794,4.794,0,0,0,.771-.261c.018-.014,2.145-.855,2.145-2.858a3.473,3.473,0,0,0-2.916-3.119v-1.262a1.262,1.262,0,0,1,1.383-1.083h11.185a1.262,1.262,0,0,1,1.383,1.083v2.6a1.3,1.3,0,0,0,2.52,0v-2.6c0-1.686-1.751-3.057-3.9-3.057H96.859c-2.152,0-3.9,1.372-3.9,3.057v1.262a3.858,3.858,0,0,0-2.722,2.132H78.366a2.1,2.1,0,0,1-2.3-1.8v-4.033a3.857,3.857,0,0,0,2.722-2.133h1.525c2.2,0,3.989-1.4,3.989-3.125v-1.194a3.854,3.854,0,0,0,2.723-2.135l19.681-.058a3.858,3.858,0,0,0,2.72,2.129v1.194c0,1.723,1.79,3.125,3.989,3.125h11.012c2.2,0,3.989-1.4,3.989-3.125v-8.627c0-1.723-1.79-3.125-3.989-3.125ZM81.585,160.113a1.336,1.336,0,1,1,1.656-1.3A1.511,1.511,0,0,1,81.585,160.113Zm-1.26,3.016a1.341,1.341,0,0,1-1.469,1.151H67.843a1.341,1.341,0,0,1-1.469-1.151V154.5a1.341,1.341,0,0,1,1.469-1.151H78.855a1.341,1.341,0,0,1,1.469,1.151V155.7c-3.907.975-3.862,5.274,0,6.238Zm23.91-9.034a1.707,1.707,0,0,1-3.311,0C101.132,152.314,104.036,152.389,104.235,154.1Zm-9.768-7.824a1.448,1.448,0,0,1,1.4,1.282,1.705,1.705,0,0,1-3.312,0A1.573,1.573,0,0,1,94.467,146.271ZM83.042,132.46a1.336,1.336,0,1,1,1.656-1.3A1.512,1.512,0,0,1,83.042,132.46Zm-8.235,6.451c-1,0-1.792-.7-1.637-1.494a1.585,1.585,0,0,1,1.637-1.1,1.336,1.336,0,1,1,0,2.594Zm6.975-3.435a1.341,1.341,0,0,1-1.469,1.151H78.789c-.655-1.6-2.736-2.551-4.819-2.218a4.164,4.164,0,0,0-3.144,2.218H69.3a1.341,1.341,0,0,1-1.469-1.151V126.85A1.341,1.341,0,0,1,69.3,125.7H80.314a1.341,1.341,0,0,1,1.469,1.151v1.194c-1.767.441-3.006,1.763-2.911,3.284.007.013.025,2.233,2.911,2.954Zm28.9-5.675a1.336,1.336,0,1,1-1.656,1.3A1.512,1.512,0,0,1,110.686,129.8Zm15.21,5.61a1.341,1.341,0,0,1-1.469,1.151H113.416a1.341,1.341,0,0,1-1.469-1.151v-1.194c1.8-.449,3.008-1.79,2.91-3.287h0a3.531,3.531,0,0,0-2.91-2.951v-1.194a1.341,1.341,0,0,1,1.469-1.151h11.012a1.341,1.341,0,0,1,1.469,1.151Zm0,0" transform="translate(-55.45 -93.843)"/></g></svg>