<svg xmlns="http://www.w3.org/2000/svg" width="81.366" height="81.366" viewBox="0 0 81.366 81.366"><defs><style>.a{fill:#f60;}</style></defs><g transform="translate(38.776 64.839)"><rect class="a" width="3.814" height="3.178"/></g><path class="a" d="M80.01,70.517H78.654V21.7a5.424,5.424,0,0,0-5.424-5.424H65.093V5.424A5.424,5.424,0,0,0,59.669,0H21.7a5.424,5.424,0,0,0-5.424,5.424V16.273H8.137A5.424,5.424,0,0,0,2.712,21.7v48.82H1.356A1.356,1.356,0,0,0,0,71.873v4.068a5.424,5.424,0,0,0,5.424,5.424H75.942a5.424,5.424,0,0,0,5.424-5.424V71.873A1.356,1.356,0,0,0,80.01,70.517ZM18.985,5.424A2.712,2.712,0,0,1,21.7,2.712H59.669a2.712,2.712,0,0,1,2.712,2.712v5.424h-43.4Zm0,8.137h43.4V52.888A2.712,2.712,0,0,1,59.669,55.6H21.7a2.712,2.712,0,0,1-2.712-2.712ZM21.7,58.312H59.669a5.424,5.424,0,0,0,5.424-5.424V24.41h5.424V62.381H10.849V24.41h5.424V52.888A5.424,5.424,0,0,0,21.7,58.312ZM5.424,21.7a2.712,2.712,0,0,1,2.712-2.712h8.137V21.7H9.493a1.356,1.356,0,0,0-1.356,1.356V63.737a1.356,1.356,0,0,0,1.356,1.356H71.873a1.356,1.356,0,0,0,1.356-1.356V23.054A1.356,1.356,0,0,0,71.873,21.7H65.093V18.985H73.23A2.712,2.712,0,0,1,75.942,21.7v48.82H52.888a1.356,1.356,0,0,0-.959.4L49.614,73.23H31.752l-2.315-2.316a1.356,1.356,0,0,0-.959-.4H5.424Zm73.23,54.244a2.712,2.712,0,0,1-2.712,2.712H5.424a2.712,2.712,0,0,1-2.712-2.712V73.23h25.2l2.315,2.315a1.356,1.356,0,0,0,.959.4H50.176a1.356,1.356,0,0,0,.959-.4l2.315-2.315h25.2Z"/><g transform="translate(19.07 42.858)"><rect class="a" width="43.226" height="3.814"/></g><g transform="translate(19.572 48.548)"><rect class="a" width="40.047" height="3.178"/></g><g transform="translate(27.802 37.816)"><rect class="a" width="33.055" height="3.178"/></g><g transform="translate(21.463 6.992)"><rect class="a" width="3.178" height="3.178"/></g><g transform="translate(27.085 6.992)"><rect class="a" width="3.178" height="3.178"/></g><g transform="translate(32.195 6.992)"><rect class="a" width="3.178" height="3.178"/></g><g transform="translate(25.552 37.816)"><rect class="a" width="3.178" height="3.178"/></g><g transform="translate(27.791 19.912)"><path class="a" d="M177.374,124.278l-2.009-2.678-6.7,5.022a1.674,1.674,0,0,0,0,2.678l6.7,5.022,2.009-2.678-4.91-3.683Z" transform="translate(-167.999 -121.6)"/></g><g transform="translate(44.201 19.912)"><path class="a" d="M276.239,126.957a1.68,1.68,0,0,0-.335-.335l-6.7-5.022-2.009,2.678,4.91,3.683-4.91,3.683,2.009,2.678,6.7-5.022A1.674,1.674,0,0,0,276.239,126.957Z" transform="translate(-267.2 -121.6)"/></g><g transform="translate(35.781 17.54)"><g transform="translate(0)"><rect class="a" width="18.028" height="3.348" transform="translate(0 16.738) rotate(-68.191)"/></g></g></svg>